<svg width="87" height="60" viewBox="0 0 87 60" fill="none" xmlns="http://www.w3.org/2000/svg">
<path d="M42.511 0H73.651C75.171 0 76.611 0.22 77.971 0.659999C79.371 1.06 80.491 1.74 81.331 2.7C82.211 3.66 82.651 4.96 82.651 6.6C82.651 8.6 82.131 10.28 81.091 11.64C80.051 13 78.711 14.14 77.071 15.06C75.471 15.98 73.751 16.74 71.911 17.34C70.071 17.94 68.331 18.48 66.691 18.96C65.091 19.4 63.771 19.86 62.731 20.34C61.691 20.78 61.171 21.3 61.171 21.9C61.171 22.86 61.611 23.66 62.491 24.3C63.411 24.94 64.611 25.52 66.091 26.04C67.611 26.56 69.251 27.12 71.011 27.72C72.811 28.28 74.591 29 76.351 29.88C78.151 30.72 79.791 31.8 81.271 33.12C82.791 34.4 83.991 36.02 84.871 37.98C85.791 39.94 86.251 42.32 86.251 45.12C86.251 47.28 85.791 49.28 84.871 51.12C83.991 52.92 82.771 54.48 81.211 55.8C79.691 57.12 77.931 58.16 75.931 58.92C73.971 59.64 71.911 60 69.751 60H42.511V0ZM51.211 51.6H73.171C75.491 51.6 77.571 51.38 79.411 50.94C81.251 50.5 82.691 49.76 83.731 48.72C84.811 47.68 85.351 46.3 85.351 44.58C85.351 42.9 84.791 41.54 83.671 40.5C82.591 39.46 81.151 38.64 79.351 38.04C77.551 37.44 75.571 36.94 73.411 36.54C71.251 36.1 69.071 35.66 66.871 35.22C64.711 34.74 62.731 34.16 60.931 33.48C59.131 32.8 57.671 31.9 56.551 30.78C55.471 29.66 54.931 28.18 54.931 26.34C54.931 25.06 55.371 24 56.251 23.16C57.171 22.28 58.351 21.52 59.791 20.88C61.231 20.2 62.731 19.52 64.291 18.84C65.891 18.16 67.411 17.36 68.851 16.44C70.291 15.52 71.451 14.36 72.331 12.96C73.251 11.56 73.711 9.82 73.711 7.74C73.711 5.86 73.171 4.44 72.091 3.48C71.051 2.48 69.611 1.8 67.771 1.44C65.971 1.08 63.951 0.899996 61.711 0.899996H51.211V51.6Z" fill="white"/>
<path d="M0 60V0H38.34V9.84C36.98 8.4 35.22 7 33.06 5.64C30.94 4.28 28.26 3.16 25.02 2.28C21.82 1.36 17.92 0.899996 13.32 0.899996H8.7V29.16H16.14C19.7 29.16 22.7 28.72 25.14 27.84C27.62 26.92 29.28 25.52 30.12 23.64V35.58C29.28 33.7 27.62 32.32 25.14 31.44C22.7 30.52 19.7 30.06 16.14 30.06H8.7V60H0Z" fill="white"/>
</svg>
